<svg xmlns="http://www.w3.org/2000/svg" version="1.1" xmlns:xlink="http://www.w3.org/1999/xlink" width="512" height="512" x="0" y="0" viewBox="0 0 16.933 16.933" style="enable-background:new 0 0 512 512" xml:space="preserve" class=""><g><path d="M12.17 2.646v.53c-.008.36.537.36.53 0v-.53c0-.364-.53-.35-.53 0zm-1.286.486.263.46c.175.315.645.042.459-.266l-.264-.46c-.167-.29-.64-.05-.458.266zm2.646-.265-.266.46c-.186.307.285.58.46.265l.263-.46c.175-.305-.285-.563-.457-.265zm-12.207.572a.798.798 0 0 0-.794.794V12.7c0 .146.119.264.265.264h1.343c.13.895.903 1.588 1.832 1.588.93 0 1.7-.693 1.83-1.588h4.52c.358.005.358-.534 0-.529h-4.52a1.847 1.847 0 0 0-3.124-1.058H1.059V4.233c0-.151.114-.265.265-.265H9.79c.15 0 .264.114.264.265v6.35c-.005.358.534.358.53 0V5.556h3.174c.152 0 .231.19.276.34l.795 2.647c.012.042.035.08.066.11l.98.981v1.743h-1.617a1.844 1.844 0 0 0-2.586 0H6.35c-.358-.005-.358.534 0 .529h4.944a1.83 1.83 0 0 0-.182.793c0 1.02.834 1.853 1.854 1.853.93 0 1.7-.693 1.83-1.588h1.344a.265.265 0 0 0 .264-.264V9.525a.265.265 0 0 0-.077-.187l-1.012-1.012-.773-2.582c-.13-.43-.384-.717-.784-.717h-.529v-.266a.797.797 0 0 0-.793-.793.798.798 0 0 0-.795.793v.266h-1.058v-.794a.798.798 0 0 0-.793-.794zm11.113 1.059c.151 0 .263.112.263.263v.266h-.529v-.266c0-.151.115-.263.266-.263zM5.028 5.82a.265.265 0 0 0-.266.266v.792h-.793a.265.265 0 0 0-.265.266v1.057c0 .147.118.266.265.265h.793v.794c0 .147.119.266.266.265h1.056a.265.265 0 0 0 .266-.265v-.794h.793a.265.265 0 0 0 .266-.265V7.144a.265.265 0 0 0-.266-.266H6.35v-.792a.265.265 0 0 0-.266-.266zm6.35.264a.265.265 0 0 0-.266.265v2.117c0 .146.12.264.266.264h2.597c.177 0 .304-.17.254-.34l-.634-2.117a.265.265 0 0 0-.255-.19zm-6.086.265h.529v.795c0 .146.118.263.263.264h.796v.53h-.796a.265.265 0 0 0-.263.263v.795h-.53v-.795a.265.265 0 0 0-.263-.264h-.795v-.529h.795a.265.265 0 0 0 .264-.264zm6.35.264h1.5L13.62 8.2H11.64zm-.264 2.647c-.361-.008-.361.537 0 .529h.529c.345-.008.345-.522 0-.53zm-7.409 2.117c.734 0 1.323.588 1.323 1.322s-.589 1.324-1.323 1.324c-.733 0-1.324-.59-1.324-1.324s.59-1.322 1.324-1.322zm8.997 0c.733 0 1.322.588 1.322 1.322s-.589 1.324-1.322 1.324c-.734 0-1.325-.59-1.325-1.324s.59-1.322 1.325-1.322zm-11.908.529h1.24a1.83 1.83 0 0 0-.161.53H1.058zm2.911 0a.798.798 0 0 0-.795.793.8.8 0 0 0 .795.795c.436 0 .793-.36.793-.795a.796.796 0 0 0-.793-.793zm8.997 0a.798.798 0 0 0-.796.793.8.8 0 0 0 .796.795c.435 0 .792-.36.792-.795a.796.796 0 0 0-.792-.793zm1.67 0h1.239v.53h-1.079a1.832 1.832 0 0 0-.16-.53zm-10.667.53c.15 0 .264.113.264.263 0 .149-.114.266-.264.266a.263.263 0 0 1-.265-.266.26.26 0 0 1 .265-.264zm8.997 0c.149 0 .263.113.263.263s-.114.266-.263.266a.263.263 0 0 1-.267-.266c0-.15.117-.264.267-.264z" fill="#008000" opacity="1" data-original="#000000" class=""></path></g></svg>