<svg xmlns="http://www.w3.org/2000/svg" version="1.1" xmlns:xlink="http://www.w3.org/1999/xlink" width="512" height="512" x="0" y="0" viewBox="0 0 512 512" style="enable-background:new 0 0 512 512" xml:space="preserve" class=""><g><path d="M200 120a24 24 0 0 0-48 0v16h48ZM112 388a60 60 0 1 0 60 60 60.068 60.068 0 0 0-60-60Zm0 84a24 24 0 1 1 24-24 24 24 0 0 1-24 24ZM416 388a60 60 0 1 0 60 60 60.068 60.068 0 0 0-60-60Zm0 84a24 24 0 1 1 24-24 24 24 0 0 1-24 24Z" fill="#16807D" opacity="1" data-original="#16807D" class=""></path><path d="M494.732 337.95 440.3 310.732c-9.295-14.365-50.867-78.461-62.767-94.021A12 12 0 0 0 368 212h-56.584l-22.049-44.1a35.8 35.8 0 0 0-32.2-19.9H28a24.028 24.028 0 0 0-24 24v252a36.04 36.04 0 0 0 36 36h1.019a72 72 0 1 1 141.962 0h162.038a72 72 0 1 1 142.463-3.5A36.043 36.043 0 0 0 508 424v-64.584a23.868 23.868 0 0 0-13.268-21.466ZM240 284a12 12 0 0 1-12 12h-28v28a12 12 0 0 1-12 12h-24a12 12 0 0 1-12-12v-28h-28a12 12 0 0 1-12-12v-24a12 12 0 0 1 12-12h28v-28a12 12 0 0 1 12-12h24a12 12 0 0 1 12 12v28h28a12 12 0 0 1 12 12Zm112 80h-15a12 12 0 0 1 0-24h15a12 12 0 0 1 0 24Zm62.73-51H336a12 12 0 0 1-12-12v-61a12 12 0 0 1 12-12h27.3a12 12 0 0 1 9.917 5.243c14.5 21.249 35.873 54.038 46.552 70.494A6 6 0 0 1 414.73 313Z" fill="#16807D" opacity="1" data-original="#16807D" class=""></path></g></svg>