<svg xmlns="http://www.w3.org/2000/svg" version="1.1" xmlns:xlink="http://www.w3.org/1999/xlink" width="512" height="512" x="0" y="0" viewBox="0 0 512 512" style="enable-background:new 0 0 512 512" xml:space="preserve" class=""><g><circle cx="256" cy="256" r="256" style="" fill="#ec5353" data-original="#ec5353"></circle><path d="M277.767 511.07c117.433-9.89 212.291-99.04 230.901-213.774L389 177.628l-3.607 20.766L342 155 99.407 332.71l178.36 178.36z" style="" fill="#d13135" data-original="#d13135"></path><path d="M425.806 235.922 389 177.628h-56.183V332.71h121.935v-84.162z" style="" fill="#ffffff" data-original="#ffffff"></path><path d="M353.333 193H381l26 43h-53.667z" style="" fill="#68b6f3" data-original="#68b6f3"></path><path d="M99.41 155H342v177.71H99.41z" style="" fill="#ffffff" data-original="#ffffff"></path><path d="M220.45 155H342v177.71H220.45z" style="" fill="#e0e0e0" data-original="#e0e0e0"></path><path d="M99.41 283H342v19.333H99.41z" style="" fill="#f98585" data-original="#f98585"></path><path d="M220.45 283H342v19.333H220.45z" style="" fill="#e27979" data-original="#e27979"></path><circle cx="396.71" cy="333.66" r="40.05" style="" fill="#303030" data-original="#303030"></circle><circle cx="396.71" cy="333.66" r="18.225" style="" fill="#595959" data-original="#595959"></circle><circle cx="159.46" cy="333.66" r="40.05" style="" fill="#595959" data-original="#595959"></circle><circle cx="159.46" cy="333.66" r="18.225" style="" fill="#969696" data-original="#969696"></circle><path d="m258.371 233-.001-29.333h-23v-23h-29.333v23l-23-.001V233h23v23h29.333v-23z" style="" fill="#ec5353" data-original="#ec5353"></path><path d="M258.37 203.667h-23v-23h-14.918V256h14.918v-23h23z" style="" fill="#d13135" data-original="#d13135"></path></g></svg>