<svg xmlns="http://www.w3.org/2000/svg" version="1.1" xmlns:xlink="http://www.w3.org/1999/xlink" width="512" height="512" x="0" y="0" viewBox="0 0 32 32" style="enable-background:new 0 0 512 512" xml:space="preserve" class=""><g><path d="M16.04 18.5c-.55 0-1-.45-1-1s.45-1 1-1h3c1.42-.95 3.13-1.5 4.96-1.5 1.05 0 2.06.19 3 .53V10H1v16c0 .55.45 1 1 1h13.53c-.33-.94-.53-1.95-.53-3 0-2.07.71-3.98 1.89-5.5zm5.02-6.71H22c.55 0 1 .45 1 1s-.45 1-1 1h-.94c-.55 0-1-.45-1-1s.45-1 1-1zm-5.02 0h.94c.55 0 1 .45 1 1s-.45 1-1 1h-.94c-.55 0-1-.45-1-1s.45-1 1-1zM6.94 23.2H6c-.55 0-1-.45-1-1s.45-1 1-1h.94c.55 0 1 .45 1 1s-.45 1-1 1zm0-4.71H6c-.55 0-1-.45-1-1s.45-1 1-1h.94c.55 0 1 .45 1 1s-.45 1-1 1zm0-4.71H6c-.55 0-1-.45-1-1s.45-1 1-1h.94c.55 0 1 .45 1 1s-.45 1-1 1zm5.02 9.41h-.94c-.55 0-1-.45-1-1s.45-1 1-1h.94c.55 0 1 .45 1 1s-.45 1-1 1zm0-4.71h-.94c-.55 0-1-.45-1-1s.45-1 1-1h.94c.55 0 1 .45 1 1s-.45 1-1 1zm0-4.71h-.94c-.55 0-1-.45-1-1s.45-1 1-1h.94c.55 0 1 .45 1 1s-.45 1-1 1zM27 5c0-.55-.45-1-1-1h-.5V2c0-.55-.45-1-1-1s-1 .45-1 1v2h-3V2c0-.55-.45-1-1-1s-1 .45-1 1v2h-3V2c0-.55-.45-1-1-1s-1 .45-1 1v2h-3V2c0-.55-.45-1-1-1s-1 .45-1 1v2h-3V2c0-.55-.45-1-1-1s-1 .45-1 1v2H2c-.55 0-1 .45-1 1v3h26z"  fill="#02877F" opacity="1" data-original="#000000" class=""></path><path d="M24 17c-3.86 0-7 3.14-7 7s3.14 7 7 7 7-3.14 7-7-3.14-7-7-7zm2.71 9.71c-.2.2-.45.29-.71.29s-.51-.1-.71-.29l-2-2A.99.99 0 0 1 23 24v-3c0-.55.45-1 1-1s1 .45 1 1v2.59l1.71 1.71c.39.39.39 1.02 0 1.41z"  fill="#02877F" opacity="1" data-original="#000000" class=""></path></g></svg>