<svg xmlns="http://www.w3.org/2000/svg" version="1.1" xmlns:xlink="http://www.w3.org/1999/xlink" width="512" height="512" x="0" y="0" viewBox="0 0 512 512" style="enable-background:new 0 0 512 512" xml:space="preserve"><g><path fill="#d3dcfb" d="M246.23 426.666H51.191c-18.851 0-34.132-15.282-34.132-34.132V358.4h261.957z" opacity="1" data-original="#d3dcfb"></path><path fill="#ebf5fc" d="M460.825 153.6V392.532H51.191c-18.851 0-34.132-15.282-34.132-34.133V153.6l238.95-85.334z" opacity="1" data-original="#ebf5fc"></path><g fill="#3c58a0"><path d="M77.336 221.867H59.203a8 8 0 0 1-8-8v-18.133a8 8 0 0 1 8-8h18.133a8 8 0 0 1 8 8v18.133a8 8 0 0 1-8 8zM145.603 221.867H127.47a8 8 0 0 1-8-8v-18.133a8 8 0 0 1 8-8h18.133a8 8 0 0 1 8 8v18.133a8 8 0 0 1-8 8zM213.869 221.867h-18.133a8 8 0 0 1-8-8v-18.133a8 8 0 0 1 8-8h18.133a8 8 0 0 1 8 8v18.133a8 8 0 0 1-8 8zM282.136 221.867h-18.133a8 8 0 0 1-8-8v-18.133a8 8 0 0 1 8-8h18.133a8 8 0 0 1 8 8v18.133a8 8 0 0 1-8 8zM350.391 221.867h-18.133a8 8 0 0 1-8-8v-18.133a8 8 0 0 1 8-8h18.133a8 8 0 0 1 8 8v18.133a8 8 0 0 1-8 8zM418.658 221.867h-18.133a8 8 0 0 1-8-8v-18.133a8 8 0 0 1 8-8h18.133a8 8 0 0 1 8 8v18.133a8 8 0 0 1-8 8zM77.336 290.133H59.203a8 8 0 0 1-8-8V264a8 8 0 0 1 8-8h18.133a8 8 0 0 1 8 8v18.133a8 8 0 0 1-8 8zM145.603 290.133H127.47a8 8 0 0 1-8-8V264a8 8 0 0 1 8-8h18.133a8 8 0 0 1 8 8v18.133a8 8 0 0 1-8 8zM213.869 290.133h-18.133a8 8 0 0 1-8-8V264a8 8 0 0 1 8-8h18.133a8 8 0 0 1 8 8v18.133a8 8 0 0 1-8 8zM290.136 290.133v-25.6a8.533 8.533 0 0 0-8.533-8.533h-17.067a8.533 8.533 0 0 0-8.533 8.533V281.6a8.533 8.533 0 0 0 8.533 8.533zM77.336 358.4H59.203a8 8 0 0 1-8-8v-18.133a8 8 0 0 1 8-8h18.133a8 8 0 0 1 8 8V350.4a8 8 0 0 1-8 8zM145.603 358.4H127.47a8 8 0 0 1-8-8v-18.133a8 8 0 0 1 8-8h18.133a8 8 0 0 1 8 8V350.4a8 8 0 0 1-8 8zM213.869 358.4h-18.133a8 8 0 0 1-8-8v-18.133a8 8 0 0 1 8-8h18.133a8 8 0 0 1 8 8V350.4a8 8 0 0 1-8 8z" fill="#3c58a0" opacity="1" data-original="#3c58a0"></path></g><path fill="#2a428c" d="M418.417 187.733h-17.65c-1.068 0-2.085.21-3.022.579a8.237 8.237 0 0 1 5.219 7.662v17.65c0 3.484-2.165 6.456-5.219 7.662.937.37 1.954.58 3.022.58h17.65a8.242 8.242 0 0 0 8.242-8.241v-17.65a8.243 8.243 0 0 0-8.242-8.242zM350.15 187.733H332.5c-1.068 0-2.085.21-3.022.579a8.237 8.237 0 0 1 5.219 7.662v17.65c0 3.484-2.165 6.456-5.219 7.662.937.37 1.954.58 3.022.58h17.65a8.24 8.24 0 0 0 8.241-8.241v-17.65a8.241 8.241 0 0 0-8.241-8.242zM281.895 187.733h-17.65c-1.068 0-2.085.21-3.022.579 3.055 1.206 5.22 4.178 5.22 7.662v17.65c0 3.484-2.165 6.456-5.22 7.662.937.37 1.954.58 3.022.58h17.65a8.242 8.242 0 0 0 8.242-8.241v-17.65a8.243 8.243 0 0 0-8.242-8.242zM213.628 187.733h-17.65c-1.068 0-2.085.21-3.022.579 3.055 1.206 5.22 4.178 5.22 7.662v17.65c0 3.484-2.165 6.456-5.22 7.662.937.37 1.954.58 3.022.58h17.65a8.242 8.242 0 0 0 8.242-8.241v-17.65a8.243 8.243 0 0 0-8.242-8.242zM145.361 187.733h-17.65c-1.068 0-2.085.21-3.022.579a8.237 8.237 0 0 1 5.219 7.662v17.65c0 3.484-2.165 6.456-5.219 7.662.937.37 1.954.58 3.022.58h17.65a8.242 8.242 0 0 0 8.242-8.241v-17.65a8.242 8.242 0 0 0-8.242-8.242zM77.095 187.733h-17.65c-1.068 0-2.085.21-3.022.579 3.055 1.206 5.22 4.178 5.22 7.662v17.65c0 3.484-2.165 6.456-5.22 7.662.937.37 1.954.58 3.022.58h17.65a8.242 8.242 0 0 0 8.242-8.241v-17.65a8.243 8.243 0 0 0-8.242-8.242zM77.095 256h-17.65c-1.068 0-2.085.21-3.022.579 3.055 1.206 5.22 4.178 5.22 7.662v17.651c0 3.484-2.165 6.456-5.22 7.662.937.37 1.954.58 3.022.58h17.65a8.242 8.242 0 0 0 8.242-8.241v-17.651A8.243 8.243 0 0 0 77.095 256zM77.095 324.267h-17.65c-1.068 0-2.085.21-3.022.579 3.055 1.206 5.22 4.178 5.22 7.662v17.651c0 3.484-2.165 6.456-5.22 7.662.937.37 1.954.58 3.022.58h17.65a8.242 8.242 0 0 0 8.242-8.241v-17.651a8.243 8.243 0 0 0-8.242-8.242zM145.361 256h-17.65c-1.068 0-2.085.21-3.022.579a8.237 8.237 0 0 1 5.219 7.662v17.651c0 3.484-2.165 6.456-5.219 7.662.937.37 1.954.58 3.022.58h17.65a8.242 8.242 0 0 0 8.242-8.241v-17.651a8.242 8.242 0 0 0-8.242-8.242zM145.361 324.267h-17.65c-1.068 0-2.085.21-3.022.579a8.237 8.237 0 0 1 5.219 7.662v17.651c0 3.484-2.165 6.456-5.219 7.662.937.37 1.954.58 3.022.58h17.65a8.242 8.242 0 0 0 8.242-8.241v-17.651a8.241 8.241 0 0 0-8.242-8.242zM213.628 256h-17.65c-1.068 0-2.085.21-3.022.579 3.055 1.206 5.22 4.178 5.22 7.662v17.651c0 3.484-2.165 6.456-5.22 7.662.937.37 1.954.58 3.022.58h17.65a8.242 8.242 0 0 0 8.242-8.241v-17.651a8.243 8.243 0 0 0-8.242-8.242zM290.136 290.133v-25.892a8.241 8.241 0 0 0-8.242-8.241h-17.65c-1.068 0-2.085.21-3.022.579 3.055 1.206 5.22 4.178 5.22 7.662v17.651c0 3.484-2.165 6.456-5.22 7.662.937.37 1.954.58 3.022.58h25.892zM213.628 324.267h-17.65c-1.068 0-2.085.21-3.022.579 3.055 1.206 5.22 4.178 5.22 7.662v17.651c0 3.484-2.165 6.456-5.22 7.662.937.37 1.954.58 3.022.58h17.65a8.242 8.242 0 0 0 8.242-8.241v-17.651a8.242 8.242 0 0 0-8.242-8.242z" opacity="1" data-original="#2a428c"></path><path fill="#d3dcfb" d="M437.114 143.721V392.533h23.711V153.6z" opacity="1" data-original="#d3dcfb"></path><path fill="#ff4155" d="M460.825 153.6V68.266c0-18.851-15.282-34.132-34.132-34.132H51.191c-18.851 0-34.132 15.281-34.132 34.132V153.6z" opacity="1" data-original="#ff4155"></path><path fill="#e80054" d="M124.609 75.993h-22.217a7.726 7.726 0 1 1 0-15.452h22.217a7.726 7.726 0 1 1 0 15.452zM179.191 75.993h-22.217a7.726 7.726 0 1 1 0-15.452h22.217c4.268 0 7.726 3.459 7.726 7.726s-3.458 7.726-7.726 7.726zM320.887 75.993h-22.218a7.726 7.726 0 1 1 0-15.452h22.218c4.268 0 7.726 3.459 7.726 7.726s-3.458 7.726-7.726 7.726zM375.47 75.993h-22.218a7.726 7.726 0 1 1 0-15.452h22.218a7.726 7.726 0 1 1 0 15.452z" opacity="1" data-original="#e80054"></path><path fill="#ebf5fc" d="M162.125 64c0 11.782-9.551 21.333-21.333 21.333S119.459 75.782 119.459 64V21.333C119.458 9.551 129.009 0 140.791 0s21.333 9.551 21.333 21.333V64zM358.403 64c0 11.782-9.551 21.333-21.333 21.333S315.736 75.782 315.736 64V21.333C315.736 9.551 325.287 0 337.069 0s21.333 9.551 21.333 21.333V64z" opacity="1" data-original="#ebf5fc"></path><path fill="#d3dcfb" d="M337.069 0c-4.38 0-8.448 1.324-11.836 3.588 5.725 3.826 9.498 10.343 9.498 17.746V64c0 7.402-3.773 13.92-9.498 17.746a21.233 21.233 0 0 0 11.836 3.588c11.782 0 21.333-9.551 21.333-21.333V21.333C358.403 9.551 348.852 0 337.069 0zM140.791 0c-4.38 0-8.448 1.324-11.836 3.588 5.725 3.826 9.498 10.343 9.498 17.746V64c0 7.402-3.773 13.92-9.498 17.746a21.233 21.233 0 0 0 11.836 3.588c11.782 0 21.333-9.551 21.333-21.333V21.333C162.125 9.551 152.574 0 140.791 0z" opacity="1" data-original="#d3dcfb"></path><path fill="#e80054" d="M426.693 34.133H402.99c18.851 0 34.132 15.281 34.132 34.132V153.6h23.702V68.266c.001-18.851-15.281-34.133-34.131-34.133z" opacity="1" data-original="#e80054"></path><path fill="#e80054" d="M17.058 111.74h443.767v15.453H17.058z" opacity="1" data-original="#e80054"></path><circle cx="366.942" cy="384" r="128" fill="#4fabf7" opacity="1" data-original="#4fabf7"></circle><circle cx="366.942" cy="384" r="93.867" fill="#ebf5fc" opacity="1" data-original="#ebf5fc"></circle><path fill="#3c58a0" d="M366.942 374.659a7.725 7.725 0 0 1-7.726-7.726v-42.667a7.726 7.726 0 1 1 15.452 0v42.667a7.726 7.726 0 0 1-7.726 7.726zM409.609 391.726h-25.601a7.726 7.726 0 1 1 0-15.452h25.601a7.726 7.726 0 1 1 0 15.452z" opacity="1" data-original="#3c58a0"></path><path fill="#1886ea" d="M366.942 256c-3.995 0-7.945.193-11.847.551C420.232 262.53 471.247 317.303 471.247 384s-51.016 121.47-116.153 127.449c3.902.358 7.852.551 11.847.551 70.692 0 128-57.308 128-128s-57.307-128-127.999-128z" opacity="1" data-original="#1886ea"></path><path fill="#d3dcfb" d="M366.942 290.133c-4.01 0-7.961.253-11.839.741 46.252 5.821 82.028 45.295 82.028 93.126s-35.776 87.305-82.028 93.126c3.878.488 7.829.741 11.839.741 51.841 0 93.867-42.026 93.867-93.867s-42.026-93.867-93.867-93.867z" opacity="1" data-original="#d3dcfb"></path><circle cx="366.942" cy="384" r="17.067" fill="#ffdd40" opacity="1" data-original="#ffdd40"></circle></g></svg>