<svg xmlns="http://www.w3.org/2000/svg" version="1.1" xmlns:xlink="http://www.w3.org/1999/xlink" width="512" height="512" x="0" y="0" viewBox="0 0 32 32" style="enable-background:new 0 0 512 512" xml:space="preserve"><g><g data-name="Layer 2"><path fill="#30938C" d="M24 2H9a3 3 0 0 0-3 3v4h2a1 1 0 0 1 0 2H6v4h2a1 1 0 0 1 0 2H6v4h2a1 1 0 0 1 0 2H6v4a3 3 0 0 0 3 3h15a3 3 0 0 0 3-3V5a3 3 0 0 0-3-3zm-2 19a1 1 0 0 1-1-1 4 4 0 0 0-8 0 1 1 0 0 1-2 0 6 6 0 0 1 3.9-5.61 4 4 0 1 1 4.2 0A6 6 0 0 1 23 20a1 1 0 0 1-1 1z" opacity="1" data-original="#2896d3"></path><path fill="#30938C" d="M19 11a2 2 0 1 1-2-2 2 2 0 0 1 2 2zM9 10a1 1 0 0 0-1-1H6a1 1 0 0 0 0 2h2a1 1 0 0 0 1-1zm-1 7H6a1 1 0 0 1 0-2h2a1 1 0 0 1 0 2zm0 6H6a1 1 0 0 1 0-2h2a1 1 0 0 1 0 2z" opacity="1" data-original="#00293b"></path></g></g></svg>