<svg xmlns="http://www.w3.org/2000/svg" version="1.1" xmlns:xlink="http://www.w3.org/1999/xlink" width="512" height="512" x="0" y="0" viewBox="0 0 512 512" style="enable-background:new 0 0 512 512" xml:space="preserve" class=""><g><path d="M256.05 0C153.751 0 67.852 79.501 60.051 180l18.399 30h12.6v-15c0-43.455 16.99-84.78 47.84-116.363l.244-.25.25-.245C171.158 47.097 212.591 30 256.05 30c90.871 0 164.8 74.019 164.8 165v.4l-.389 14.6h10.789l20.601-30C444.05 79.501 358.349 0 256.05 0z" style="" fill="#384949" data-original="#384949"></path><path d="M256.05 0v30c90.871 0 164.8 74.019 164.8 165v.4l-.389 14.6h10.789l20.601-30C444.05 79.501 358.349 0 256.05 0z" style="" fill="#293939" data-original="#293939"></path><path d="m414.749 223.5-158.699 3-160.201 3.001L76.05 456.899l180 1.501 182.999 1.5-24.3-236.4z" style="" fill="#384949" data-original="#384949"></path><path d="m439.049 459.901-182.999-1.5V226.5l158.699-3z" style="" fill="#293939" data-original="#293939"></path><path d="M59.251 180c-.3 4.799-.401 9.901-.401 15v105h91.399V180H59.251z" style="" fill="#ff3636" data-original="#ff3636"></path><path d="M350.251 421.199C332.85 456.599 296.549 482 256.05 482c-37.8 0-72.299-22.4-90.601-54.5l16.201-38.401 2.399-.298L196.05 342.6l16.199 7.8c13.5 6.301 28.801 9.6 43.801 9.6 15 0 30.3-3.3 43.801-9.6l16.199-7.8 12.001 46.201 2.399.298 19.801 32.1z" style="" fill="#ffbd86" data-original="#ffbd86"></path><path d="M451.851 180H360.25v120h22.284l4.627 13.5L423.55 300h28.301s.3-115.201 0-120z" style="" fill="#cc0000" data-original="#cc0000"></path><path d="M350.251 421.199C332.85 456.599 296.549 482 256.05 482V360c15 0 30.3-3.3 43.801-9.6l16.199-7.8 12.001 46.201 2.399.298 19.801 32.1z" style="" fill="#f6a96c" data-original="#f6a96c"></path><path d="m390.45 210 .2 45c0 38.101-16.399 74.399-44.599 99.901-24.901 22.8-56.1 35.099-89.7 35.099h-.3c-4.501 0-8.699-.3-13.2-.601-68.399-6.599-121.8-67.8-121.8-139.499V210l28.801-30h9c35.4 0 68.101-20.4 83.699-51.599l13.5-27.301 13.5 27.301C285.149 159.6 317.85 180 353.25 180h15.3l21.9 30z" style="" fill="#fed2a4" data-original="#fed2a4"></path><path d="m390.45 210 .2 45c0 38.101-16.399 74.399-44.599 99.901-24.901 22.8-56.1 35.099-89.7 35.099h-.3V101.1l13.5 27.301C285.149 159.6 317.85 180 353.25 180h15.3l21.9 30z" style="" fill="#ffbd86" data-original="#ffbd86"></path><path d="M256.05 60c-35.7 0-69.6 14.099-95.7 39.6-25.201 25.8-39.3 59.7-39.3 95.4v15h37.8c38.699 0 74.099-17.401 97.2-47.1 23.101 29.7 58.5 47.1 97.2 47.1h37.2l.4-15c0-74.399-60.4-135-134.8-135z" style="" fill="#384949" data-original="#384949"></path><path d="m390.85 195-.4 15h-37.2c-38.699 0-74.099-17.401-97.2-47.1V60c74.4 0 134.8 60.601 134.8 135z" style="" fill="#293939" data-original="#293939"></path><path d="M423.55 300c-6 17.401-22.8 30-42.299 30h-109.4v-30H423.55z" style="" fill="#3e5959" data-original="#3e5959"></path><path d="M481.25 496.399c-.901-24.3-11-49.699-27.499-68.299-15.601-16.8-38.401-27.9-64.801-31.501l-58.5-7.5-3.9 11.4c-10.5 29.702-38.7 49.501-70.5 49.501-31.5 0-60-19.799-70.499-49.501l-3.9-11.4-58.801 7.5c-26.1 3.602-48.9 14.702-64.2 31.501-16.5 17.999-26.1 43.4-27.599 67.999L30.149 512H481.85l-.6-15.601z" style="" fill="#ff3636" data-original="#ff3636"></path><path d="M481.851 512H256.05v-62c31.8 0 60-19.799 70.499-49.501l3.9-11.4 58.5 7.5c26.4 3.602 49.2 14.702 64.801 31.501 16.5 18.6 26.598 43.999 27.499 68.299l.602 15.601z" style="" fill="#cc0000" data-original="#cc0000"></path></g></svg>