<svg xmlns="http://www.w3.org/2000/svg" version="1.1" xmlns:xlink="http://www.w3.org/1999/xlink" width="512" height="512" x="0" y="0" viewBox="0 0 512 512" style="enable-background:new 0 0 512 512" xml:space="preserve" class=""><g><path fill="#7655ff" d="M93.938 67.128C50.649 110.417 26.81 167.972 26.81 229.19v60.425h30V229.19C56.81 119.356 146.166 30 256 30l25.316-14.416L256 0C194.781 0 137.227 23.84 93.938 67.128z" opacity="1" data-original="#7655ff"></path><path fill="#674cc3" d="M418.062 67.128C374.773 23.84 317.219 0 256 0v30c109.834 0 199.19 89.356 199.19 199.19v60.425h30V229.19c0-61.218-23.839-118.773-67.128-162.062z" opacity="1" data-original="#674cc3" class=""></path><path fill="#b4c5f2" d="M426.254 436.713v2.82c0 23.416-19.051 42.467-42.467 42.467H298.16l21.42 30h64.207c35.891 0 65.692-26.257 71.403-60.553.647-3.887 1.064-7.846 1.064-11.914v-2.82z" opacity="1" data-original="#b4c5f2"></path><path fill="#939ef0" d="M0 274.615v176.832h56.81l20.396-88.416-20.396-88.416z" opacity="1" data-original="#939ef0"></path><path fill="#ebf3fe" d="M71.471 274.615H56.81v176.832h14.661c20.059 0 36.32-16.261 36.32-36.32V310.936c0-20.06-16.261-36.321-36.32-36.321z" opacity="1" data-original="#ebf3fe"></path><path fill="#8080ff" d="M512 274.615v176.832h-56.81l-20.396-88.416 20.396-88.416z" opacity="1" data-original="#8080ff"></path><path fill="#d0e4fc" d="M440.529 274.615h14.661v176.832h-14.661c-20.059 0-36.32-16.261-36.32-36.32V310.936c0-20.06 16.261-36.321 36.32-36.321z" opacity="1" data-original="#d0e4fc"></path><path fill="#7655ff" d="M225.454 445.932c-18.244 0-33.034 14.79-33.034 33.034S207.21 512 225.454 512H256l19.434-30L256 445.932z" opacity="1" data-original="#7655ff"></path><path fill="#674cc3" d="M319.58 478.966c0-18.244-14.79-33.034-33.034-33.034H256V512h63.58z" opacity="1" data-original="#674cc3" class=""></path><path fill="#ff6a6d" d="M217.289 126.579v73.686h-73.686v77.422h73.686v73.686H256l25.316-106.908L256 126.579z" opacity="1" data-original="#ff6a6d"></path><path fill="#ec2176" d="M294.711 200.265v-73.686H256v224.794h38.711v-73.686h73.686v-77.422z" opacity="1" data-original="#ec2176" class=""></path></g></svg>