<svg xmlns="http://www.w3.org/2000/svg" version="1.1" xmlns:xlink="http://www.w3.org/1999/xlink" width="512" height="512" x="0" y="0" viewBox="0 0 48 48" style="enable-background:new 0 0 512 512" xml:space="preserve" class=""><g><path d="M28.5 26.471H25v-3.5a1 1 0 0 0-2 0v3.5h-3.5a1 1 0 0 0 0 2H23v3.5a1 1 0 0 0 2 0v-3.5h3.5a1 1 0 0 0 0-2zM24 14.751a2.012 2.012 0 0 0-1.98 1.72h3.96a2.012 2.012 0 0 0-1.98-1.72z" fill="#EE2522" opacity="1" data-original="#EE2522" class=""></path><path d="M37 6H11a5 5 0 0 0-5 5v26a5 5 0 0 0 5 5h26a5 5 0 0 0 5-5V11a5 5 0 0 0-5-5zM20.01 16.471a4.003 4.003 0 0 1 7.98 0 1 1 0 0 1 .01 2h-8a1 1 0 0 1 .01-2zM34.287 33.21a2 2 0 0 1-2 2H15.713a2 2 0 0 1-2-2V21.733a2 2 0 0 1 2-2h16.574a2 2 0 0 1 2 2z" fill="#EE2522" opacity="1" data-original="#EE2522" class=""></path></g></svg>