<svg xmlns="http://www.w3.org/2000/svg" version="1.1" xmlns:xlink="http://www.w3.org/1999/xlink" width="512" height="512" x="0" y="0" viewBox="0 0 512 512" style="enable-background:new 0 0 512 512" xml:space="preserve"><g><path fill-rule="evenodd" d="M208.625 273.497h264.646c16.638 0 30.174-13.536 30.174-30.173V102.608c0-16.638-13.536-30.174-30.174-30.174h-45.789V48.137c0-21.077-17.148-38.225-38.226-38.225h-96.617c-21.077 0-38.226 17.148-38.226 38.225v24.297h-45.788c-16.638 0-30.174 13.536-30.174 30.174v140.715c0 16.638 13.536 30.174 30.174 30.174zm61.788-225.36c0-12.255 9.971-22.225 22.226-22.225h96.617c12.255 0 22.226 9.97 22.226 22.225v24.297h-14V48.137c0-4.535-3.69-8.225-8.226-8.225h-96.617c-4.535 0-8.226 3.69-8.226 8.225v24.297h-14zm111.068 24.297h-81.068V55.912h81.068zm-187.03 30.174c0-7.815 6.358-14.174 14.174-14.174h264.646c7.815 0 14.174 6.358 14.174 14.174v140.715c0 7.815-6.358 14.173-14.174 14.173H208.625c-7.815 0-14.174-6.358-14.174-14.173zm101.777 97.674h17.402v17.403a8 8 0 0 0 8 8h38.635a8 8 0 0 0 8-8v-17.403h17.402a8 8 0 0 0 8-8v-38.634a8 8 0 0 0-8-8h-17.402v-17.403a8 8 0 0 0-8-8H321.63a8 8 0 0 0-8 8v17.403h-17.402a8 8 0 0 0-8 8v38.634a8 8 0 0 0 8 8zm8-38.634h17.402a8 8 0 0 0 8-8v-17.403h22.635v17.403a8 8 0 0 0 8 8h17.402v22.634h-17.402a8 8 0 0 0-8 8v17.403H329.63v-17.403a8 8 0 0 0-8-8h-17.402zm194.688 145.884c-4.72-7.879-24.089-31.272-75.22-1.494l-90.154 52.511c-4.52 2.631-9.116 4.491-13.913 5.6 1.777-2.85 3.17-6.075 4.126-9.644 4.608-17.201-5.615-35.16-23.275-40.885a8.017 8.017 0 0 0-1.047-.263c-25.911-4.673-51.485-13.919-72.034-21.348-7.139-2.581-13.881-5.019-19.614-6.878-23.082-7.484-43.945 1.782-61.313 11.837l-67.074 38.834-6.324-11.174c-2.791-4.932-7.35-8.486-12.836-10.007-5.487-1.521-11.224-.821-16.156 1.971l-25.295 14.316c-4.933 2.792-8.486 7.35-10.007 12.836s-.821 11.224 1.971 16.157l74.367 131.402c2.791 4.933 7.35 8.486 12.836 10.007 1.897.526 3.824.786 5.738.786a21.11 21.11 0 0 0 10.418-2.757l25.296-14.316c4.933-2.792 8.486-7.35 10.007-12.836s.82-11.224-1.972-16.156l-7.667-13.548 15.29-8.827 115.47 30.94c6.522 1.748 12.923 2.621 19.187 2.621 12.488 0 24.427-3.469 35.662-10.386L488.99 356.086c14.914-9.183 19.646-32.325 9.926-48.554zM133.994 467.913a5.233 5.233 0 0 1-2.47 3.185l-25.296 14.316a5.225 5.225 0 0 1-4.002.477 5.232 5.232 0 0 1-3.186-2.469L24.674 352.02c-.687-1.213-.855-2.634-.477-4.001s1.256-2.499 2.47-3.186l25.295-14.316a5.184 5.184 0 0 1 2.562-.675c.479 0 .963.065 1.44.198a5.236 5.236 0 0 1 3.186 2.469l74.367 131.402a5.234 5.234 0 0 1 .477 4.002zm346.608-125.452L316.993 443.205c-12.976 7.987-27.214 9.984-42.319 5.935l-118.671-31.798a8.005 8.005 0 0 0-6.07.799l-18.041 10.415-44.614-78.829 67.21-38.913c15.034-8.705 31.302-15.997 48.359-10.464 5.48 1.777 11.797 4.061 19.11 6.705 20.966 7.58 47.022 17 74.057 21.942 9.422 3.291 14.689 12.393 12.285 21.366-3.162 11.804-12.997 13.272-20.82 12.375-13.284-2.731-25.906-6.333-39.262-10.147-6.329-1.808-12.875-3.677-19.603-5.48a8 8 0 0 0-4.141 15.455c6.601 1.769 13.082 3.62 19.35 5.41 13.763 3.931 26.763 7.643 40.761 10.505.054.011.266.049.318.058l11.211 1.823c16.772 2.683 31.646.069 45.479-7.987l90.155-52.511c25.951-15.115 45.929-16.652 53.44-4.111 5.179 8.643 2.864 22.122-4.585 26.708zM59.301 355.895a9.031 9.031 0 1 1-10.242-7.63 9.031 9.031 0 0 1 10.242 7.63z" clip-rule="evenodd" fill="#FF0002" opacity="1" data-original="#000000"></path></g></svg>