<svg xmlns="http://www.w3.org/2000/svg" version="1.1" xmlns:xlink="http://www.w3.org/1999/xlink" width="512" height="512" x="0" y="0" viewBox="0 0 64 64" style="enable-background:new 0 0 512 512" xml:space="preserve" class=""><g><g data-name="Layer 28"><path d="M49.45 3.25h-34.9a11.31 11.31 0 0 0-11.3 11.3v34.9a11.31 11.31 0 0 0 11.3 11.3h34.9a11.31 11.31 0 0 0 11.3-11.3v-34.9a11.31 11.31 0 0 0-11.3-11.3zM32.56 50a.75.75 0 0 1-1.12 0c-.52-.58-12.84-14.4-12.84-22 0-7.83 6-14.21 13.4-14.21S45.4 20.13 45.4 28c0 7.6-12.32 21.42-12.84 22z"  fill="#F7A41D" opacity="1" data-original="#000000" class=""></path><circle cx="32" cy="26.73" r="5.69"  fill="#F7A41D" opacity="1" data-original="#000000" class=""></circle></g></g></svg>