<svg xmlns="http://www.w3.org/2000/svg" version="1.1" xmlns:xlink="http://www.w3.org/1999/xlink" width="512" height="512" x="0" y="0" viewBox="0 0 68 68" style="enable-background:new 0 0 512 512" xml:space="preserve"><g><path fill="#fdc72e" d="M2 33.998C2 17.91 15.048 4.863 31.135 4.863c16.088 0 29.125 13.047 29.125 29.135 0 16.087-13.037 29.135-29.125 29.135C15.048 63.133 2 50.085 2 33.998" opacity="1" data-original="#fdc72e"></path><path fill="#e9e9ff" d="M54.89 33.998c0 13.121-10.634 23.763-23.756 23.763-13.121 0-23.763-10.642-23.763-23.763 0-13.122 10.642-23.764 23.763-23.764 13.122 0 23.755 10.642 23.755 23.764z" opacity="1" data-original="#e9e9ff"></path><path fill="#4f5d99" d="M31.912 12.95v4.469a.42.42 0 0 1-.42.42h-.724a.42.42 0 0 1-.42-.42V12.95a.42.42 0 0 1 .42-.42h.724a.42.42 0 0 1 .42.42zM31.912 50.577v4.468a.42.42 0 0 1-.42.42h-.724a.42.42 0 0 1-.42-.42v-4.468a.42.42 0 0 1 .42-.42h.724a.42.42 0 0 1 .42.42zM16.8 18.562l3.16 3.16a.42.42 0 0 1 0 .594l-.513.511a.42.42 0 0 1-.593 0l-3.16-3.159a.42.42 0 0 1 0-.594l.512-.512a.42.42 0 0 1 .594 0zM10.082 33.216h4.468a.42.42 0 0 1 .42.42v.724a.42.42 0 0 1-.42.42h-4.468a.42.42 0 0 1-.42-.42v-.724a.42.42 0 0 1 .42-.42zM47.709 33.216h4.468a.42.42 0 0 1 .42.42v.724a.42.42 0 0 1-.42.42H47.71a.42.42 0 0 1-.42-.42v-.724a.42.42 0 0 1 .42-.42zM15.694 48.328l3.16-3.16a.42.42 0 0 1 .593 0l.512.513a.42.42 0 0 1 0 .593l-3.16 3.16a.42.42 0 0 1-.593 0l-.512-.512a.42.42 0 0 1 0-.594zM42.3 21.722l3.16-3.16a.42.42 0 0 1 .593 0l.512.513a.42.42 0 0 1 0 .593l-3.16 3.16a.42.42 0 0 1-.593 0l-.512-.512a.42.42 0 0 1 0-.594z" opacity="1" data-original="#4f5d99"></path><path fill="#ed524e" d="M31.88 21.216v13.013h-1.5V21.216c0-.284.24-.525.524-.525h.452c.283 0 .524.241.524.525z" opacity="1" data-original="#ed524e"></path><path fill="#70c1f9" d="m39.58 43.91-9.2-9.2 1.06-1.062 9.202 9.201c.2.2.2.542 0 .742l-.32.32c-.2.2-.541.2-.741 0z" opacity="1" data-original="#70c1f9"></path><path fill="#4f5d99" d="M33.35 33.998a2.22 2.22 0 1 1-4.44 0 2.22 2.22 0 0 1 4.44 0z" opacity="1" data-original="#4f5d99"></path><g opacity=".2"><path fill="#ffffff" d="M44.64 59.801a28.82 28.82 0 0 1-13.5 3.33c-2.3 0-4.54-.27-6.69-.78l-15.77-46.9c4.36-5.29 10.56-9.01 17.61-10.18zM53.59 52.551a28.61 28.61 0 0 1-4.5 4.37L31.57 4.871l6.24.77z" opacity="1" data-original="#ffffff"></path></g><path fill="#ed524e" d="M66 50.522c0 2.549-.757 4.921-2.06 6.906-.436.67-.938 1.294-1.497 1.867-.11.114-.22.228-.334.334-.114.11-.229.216-.348.317a12.507 12.507 0 0 1-2.214 1.585c-.101.057-.207.114-.312.171a13.508 13.508 0 0 1-.995.467c-1.492.625-3.13.968-4.846.968-1.488 0-2.91-.255-4.235-.73-4.876-1.74-8.367-6.41-8.367-11.885 0-2.54.753-4.907 2.056-6.888.43-.674.933-1.299 1.492-1.875l.048-.049a5.47 5.47 0 0 1 .282-.277l.171-.167c.141-.128.287-.255.432-.379a11.989 11.989 0 0 1 .506-.41c.145-.105.29-.21.44-.312a12.438 12.438 0 0 1 2.329-1.276 12.41 12.41 0 0 1 3.098-.845 12.057 12.057 0 0 1 2.716-.084v.005c1.14.079 2.236.316 3.27.686v.005C62.51 40.394 66 45.056 66 50.522z" opacity="1" data-original="#ed524e"></path><path fill="#e9e9ff" d="M46.382 52.065c.182-.146.457-.343.815-.583.4-.26.728-.49.977-.688.252-.2.472-.436.655-.702.185-.272.28-.57.28-.888 0-.322-.084-.612-.249-.86a1.657 1.657 0 0 0-.67-.578 2.12 2.12 0 0 0-.934-.204c-.63 0-1.22.135-1.757.404a.374.374 0 0 0-.204.344.357.357 0 0 0 .533.323 3.19 3.19 0 0 1 1.303-.274c.412 0 .713.082.894.244.182.162.27.377.27.656a.807.807 0 0 1-.173.49c-.12.16-.273.31-.454.446-.184.138-.437.31-.75.51a13.86 13.86 0 0 0-.895.621c-.23.177-.428.385-.589.617a1.35 1.35 0 0 0-.249.783c0 .137.046.25.137.338.09.087.204.13.34.13h3.001c.11 0 .205-.037.282-.11a.373.373 0 0 0 .116-.28.385.385 0 0 0-.115-.283.386.386 0 0 0-.283-.116h-2.598c.073-.115.179-.228.317-.34zM53.643 51.068h-.527v-2.952a.51.51 0 0 0-.143-.368.5.5 0 0 0-.373-.148h-.155c-.087 0-.17.02-.25.057a.496.496 0 0 0-.19.155l-2.44 3.117a.5.5 0 0 0-.108.32v.07c0 .142.052.263.152.36.1.098.223.147.364.147h2.307v.993c0 .116.04.215.12.295.08.08.179.12.294.12a.415.415 0 0 0 .422-.415v-.993h.527a.377.377 0 0 0 .27-.646.37.37 0 0 0-.27-.112zm-1.363-2.415v2.415h-1.873zM56.67 47.126a.365.365 0 0 0-.235.076.39.39 0 0 0-.129.185l-2.06 6.026a.378.378 0 0 0 .356.52.364.364 0 0 0 .235-.076.393.393 0 0 0 .129-.185l2.06-6.026a.375.375 0 0 0-.356-.52zM61.46 47.773a.5.5 0 0 0-.355-.134h-3.172a.38.38 0 0 0-.283.121.4.4 0 0 0-.115.286c0 .11.038.205.116.282a.386.386 0 0 0 .282.116h2.718l-2.091 4.16a.48.48 0 0 0-.054.215.4.4 0 0 0 .12.295c.08.08.18.12.294.12a.446.446 0 0 0 .227-.064.43.43 0 0 0 .165-.167l2.21-4.519a.895.895 0 0 0 .083-.368.451.451 0 0 0-.145-.343z" opacity="1" data-original="#e9e9ff"></path><g opacity=".2"><path fill="#ffffff" d="M59.547 61.53c-.101.058-.207.115-.312.172a13.508 13.508 0 0 1-.995.467c-1.492.625-3.13.968-4.846.968-1.488 0-2.91-.255-4.235-.73l-6.311-18.773c.43-.674.933-1.299 1.492-1.875l.048-.049a5.47 5.47 0 0 1 .282-.277l.171-.167c.141-.128.287-.255.432-.379a11.989 11.989 0 0 1 .506-.41c.145-.105.29-.21.44-.312a12.438 12.438 0 0 1 2.329-1.276 12.41 12.41 0 0 1 3.098-.845zM63.94 57.428l-1.497 1.867c-.11.114-.22.228-.334.334-.114.11-.229.216-.348.317l-7.399-21.981c1.14.079 2.236.316 3.27.686v.005z" opacity="1" data-original="#ffffff"></path></g></g></svg>