<svg xmlns="http://www.w3.org/2000/svg" version="1.1" xmlns:xlink="http://www.w3.org/1999/xlink" width="512" height="512" x="0" y="0" viewBox="0 0 512 512" style="enable-background:new 0 0 512 512" xml:space="preserve"><g><circle cx="256" cy="256" r="256" fill="#ffd300" opacity="1" data-original="#ffd300"></circle><path fill="#ff9e00" d="M512 256c0-.081-.003-.161-.003-.241L381.32 125.082 130.843 387.077l124.92 124.92c.079 0 .158.003.238.003C397.385 512 512 397.385 512 256z" opacity="1" data-original="#ff9e00"></path><path fill="#ffffff" d="M89.68 256c0 91.856 74.464 166.32 166.32 166.32l10-131-10-201.64c-91.856 0-166.32 74.464-166.32 166.32z" opacity="1" data-original="#ffffff"></path><path fill="#e3eaee" d="M256 89.68v332.64c91.856 0 166.32-74.464 166.32-166.32S347.856 89.68 256 89.68z" opacity="1" data-original="#e3eaee"></path><circle cx="383.663" cy="256.257" r="7.8" fill="#b8b8be" opacity="1" data-original="#b8b8be"></circle><circle cx="128.337" cy="256.257" r="7.8" fill="#dddde1" opacity="1" data-original="#dddde1"></circle><circle cx="346.271" cy="165.986" r="7.8" fill="#b8b8be" opacity="1" data-original="#b8b8be"></circle><circle cx="165.729" cy="346.528" r="7.8" fill="#dddde1" opacity="1" data-original="#dddde1"></circle><circle cx="165.729" cy="165.986" r="7.8" fill="#dddde1" opacity="1" data-original="#dddde1"></circle><circle cx="346.271" cy="346.528" r="7.8" fill="#b8b8be" opacity="1" data-original="#b8b8be"></circle><path fill="#7c75d9" d="M104.68 256c0-83.438 67.882-151.32 151.32-151.32l10-15-10-15c-99.98 0-181.32 81.34-181.32 181.32 0 99.979 81.34 181.319 181.32 181.319l10-15-10-15c-83.438.001-151.32-67.881-151.32-151.319z" opacity="1" data-original="#7c75d9"></path><path fill="#554cce" d="M256 74.68v30c83.438 0 151.32 67.882 151.32 151.32S339.438 407.319 256 407.319v30c99.98 0 181.32-81.34 181.32-181.319 0-99.98-81.34-181.32-181.32-181.32z" opacity="1" data-original="#554cce"></path><path fill="#dddde1" d="M248.2 128.594a7.8 7.8 0 0 0 7.8 7.8l4-7.8-4-7.8a7.8 7.8 0 0 0-7.8 7.8z" opacity="1" data-original="#dddde1"></path><path fill="#b8b8be" d="M263.8 128.594a7.8 7.8 0 0 0-7.8-7.8v15.6a7.8 7.8 0 0 0 7.8-7.8z" opacity="1" data-original="#b8b8be"></path><path fill="#dddde1" d="M248.2 383.92a7.8 7.8 0 0 0 7.8 7.8l5-6.8-5-8.8a7.8 7.8 0 0 0-7.8 7.8z" opacity="1" data-original="#dddde1"></path><path fill="#b8b8be" d="M256 391.72a7.8 7.8 0 1 0 0-15.6z" opacity="1" data-original="#b8b8be"></path><path fill="#32393f" d="M354.323 272.967c.06-11.49-2.225-19.165-7.188-24.153-3.818-3.838-9.045-5.784-15.536-5.784-3.614 0-6.981.783-9.999 2.228v-25.396h-15V304.245h15v-31.317c0-8.771 4.111-14.898 9.999-14.898 3.546 0 4.531.99 4.902 1.363 1.074 1.079 2.869 4.269 2.821 13.563l.114 31.317 15-.055z" opacity="1" data-original="#32393f"></path><path fill="#5a5a5a" d="m217.868 304.273-55.998-.173.048-13.145 2.06-2.161c.072-.076 8.55-9.136 27.956-36.864 3.795-5.421 6.241-10.28 7.277-14.45l.277-2.171c-.225-6.977-5.97-12.582-12.999-12.582-6.202 0-11.569 4.406-12.762 10.477l-1.445 7.359-14.719-2.891 1.445-7.359c2.57-13.087 14.127-22.586 27.48-22.586 15.442 0 28.006 12.563 28.006 28.006v.478l-.591 4.317c-1.42 6.124-4.678 12.854-9.682 20.004-9.382 13.405-16.299 22.594-21.059 28.634l34.751.107zM247.771 265.601 256 251.259l7-19.844-7-10.296-34.13 59.482H256l10-6.709-10-8.291z" opacity="1" data-original="#5a5a5a"></path><path fill="#32393f" d="m282.299 265.601.139-54.098h-20.92L256 221.119v30.14l11.387-19.844-.088 34.186H256v15h11.261l-.062 23.633 15 .039.062-23.672h10.384v-15z" opacity="1" data-original="#32393f"></path></g></svg>